<svg xmlns="http://www.w3.org/2000/svg" viewBox="0 0 145.33 156.96" width="100">
  <g>
    <path fill="#282828" class="path-dark" d="M72.67,23.25a49.4,49.4,0,0,0-17.44,95.63v26.45a2.91,2.91,0,0,0,2.91,2.91H61v5.81A2.91,2.91,0,0,0,64,157H81.39a2.91,2.91,0,0,0,2.91-2.91v-5.81h2.9a2.91,2.91,0,0,0,2.91-2.91V118.88A49.4,49.4,0,0,0,72.67,23.25ZM84.3,142.42H81.39a2.91,2.91,0,0,0-2.91,2.91v5.81H66.86v-5.81A2.91,2.91,0,0,0,64,142.42H61V127.89H84.3Zm2-28.36a2.9,2.9,0,0,0-2,2.76v5.26H61v-5.26a2.9,2.9,0,0,0-2-2.76,43.6,43.6,0,1,1,27.26,0Z"/>
    <path fill="#fcd222" class="path-light" d="M116.27,72.66a43.5,43.5,0,0,1-30,41.4,2.9,2.9,0,0,0-2,2.76v5.26H61v-5.26a2.9,2.9,0,0,0-2-2.76,43.59,43.59,0,1,1,57.23-41.4Z"/>
    <path fill="#fcd222" class="path-light" d="M72.67,17.44a2.9,2.9,0,0,0,2.9-2.91V2.91a2.91,2.91,0,1,0-5.81,0V14.53A2.91,2.91,0,0,0,72.67,17.44Z"/>
    <path fill="#fcd222" class="path-light" d="M142.42,69.76H130.8a2.91,2.91,0,1,0,0,5.81h11.62a2.91,2.91,0,1,0,0-5.81Z"/>
    <path fill="#fcd222" class="path-light" d="M14.53,69.76H2.91a2.91,2.91,0,1,0,0,5.81H14.53a2.91,2.91,0,1,0,0-5.81Z"/>
    <path fill="#fcd222" class="path-light" d="M119.94,21.28l-8.22,8.22a2.91,2.91,0,0,0,4.11,4.11l8.22-8.22a2.91,2.91,0,1,0-4.11-4.11Z"/>
    <path fill="#fcd222" class="path-light" d="M29.5,111.72l-8.22,8.22a2.91,2.91,0,0,0,2.06,5,2.87,2.87,0,0,0,2.05-.85l8.22-8.22a2.91,2.91,0,0,0-4.11-4.11Z"/>
    <path fill="#fcd222" class="path-light" d="M115.83,111.72a2.91,2.91,0,0,0-4.11,4.11l8.22,8.22a2.91,2.91,0,1,0,4.11-4.11Z"/>
    <path fill="#fcd222" class="path-light" d="M29.5,33.61a2.91,2.91,0,0,0,4.11-4.11l-8.22-8.22a2.91,2.91,0,0,0-4.11,4.11Z"/>
    <path fill="#282828" class="path-dark" d="M72.67,37.79A34.91,34.91,0,0,0,37.79,72.67a2.91,2.91,0,0,0,5.81,0A29.1,29.1,0,0,1,72.67,43.6a2.91,2.91,0,0,0,0-5.81Z"/>
  </g>
</svg>